<?xml version="1.0" encoding="utf-8"?>
<!-- Generator: Adobe Illustrator 24.0.2, SVG Export Plug-In . SVG Version: 6.00 Build 0)  -->
<svg version="1.1" id="Layer_1" xmlns="http://www.w3.org/2000/svg" xmlns:xlink="http://www.w3.org/1999/xlink" x="0px" y="0px"
	 viewBox="0 0 180 180" style="enable-background:new 0 0 180 180;" xml:space="preserve">
<style type="text/css">
	.st0{fill:url(#SVGID_1_);}
	.st1{fill:#42A047;}
	.st2{opacity:0.75;}
	.st3{fill:#999999;}
	.st4{fill:#FFFFFF;}
</style>
<linearGradient id="SVGID_1_" gradientUnits="userSpaceOnUse" x1="8.2981" y1="226.3612" x2="152.3761" y2="-14.3337">
	<stop  offset="0" style="stop-color:#B8D37D"/>
	<stop  offset="0.5096" style="stop-color:#7DBA62"/>
	<stop  offset="0.9935" style="stop-color:#42A047"/>
</linearGradient>
<path class="st0" d="M137.3,179.4H42.5c-23.2,0-42-18.8-42-42V42.6c0-23.2,18.8-42,42-42h94.8c23.2,0,42,18.8,42,42v94.8
	C179.3,160.6,160.5,179.4,137.3,179.4z"/>
<path class="st1" d="M391.1,131.8h-94.8c-23.2,0-42-18.8-42-42V-5c0-23.2,18.8-42,42-42h94.8c23.2,0,42,18.8,42,42v94.8
	C433.1,113,414.3,131.8,391.1,131.8z"/>
<g>
	<g class="st2">
		<path class="st3" d="M133.2,49.4c-1.7-1-3.6-1.2-5.6-1.1c-1.6,0.1-3.2,0.4-5,0.7c1.4-2.3,2.6-4.5,3.2-7c0.8-3.9-1-6.9-4.5-7.7
			c-1.6-0.3-3.1,0-4.6,0.5c-3.2,1.2-5.9,3-8.6,5.2c-0.6,0.4-0.7,0.5-1.2-0.2c-0.7-1.5-2.1-2.3-3.6-2.8c-4-1.2-7.6-0.4-10.6,2.5
			c-3.4,3.1-5.1,7.3-6.2,11.6c-0.2,0.9-0.6,1.2-1.5,1.2c-3.2-0.2-6.3,0.4-9.4,1.4c-6.7,2.1-12.2,6.1-17.4,10.5
			C45.6,75,36.7,88.4,29.9,103.4c-1,2.2-0.2,3.4,2.2,3.7c5.8,0.7,11.8,0.7,17.7,0.5c5.4-0.2,10.8-0.7,16-1.8
			c0.6-0.2,0.7,0.2,0.9,0.5c0.7,1.3,1.4,2.6,2.1,3.9c3.2,6,6.2,12.2,9.8,18c3.9,6.6,9.5,10.1,17.5,8.7c0.7-0.2,0.7,0.2,1,0.7
			c1.2,2.2,2.4,4.4,3.5,6.7c0.4,0.7,0.9,1.3,1.7,1.5c0.8,0.1,1.5-0.2,2-0.7c0.6-0.7,0.6-1.6,0.2-2.5c-1.5-2.9-3-5.7-4.5-8.6
			c-0.9-1.7-1.6-2.1-3.5-1.5c-4.8,1.5-8.9,0.1-12.2-3.6c-1-1.1-1.8-2.3-2.6-3.6c-3.5-6.6-7.1-13.2-10.5-19.7
			c-0.7-1.4-0.7-1.4,0.7-2.1c0.7-0.3,1.2-0.7,1.9-1.1c0.2,0.5,0.6,0.9,0.8,1.4c2,3.7,3.9,7.5,6,11.2c1.6,2.7,4.4,3.9,7.2,3
			c3.8-1.2,5.3-5.3,3.4-9.1c-2.1-3.9-4.3-7.8-6.4-11.7c-0.9-1.6-0.9-1.6,0.7-2.3c0.3-0.2,0.7-0.2,0.8-0.5c0.7-0.7,1.1-0.3,1.5,0.4
			c2.2,4.2,4.5,8.3,6.8,12.4c1.5,2.6,4,3.9,6.6,3.3c4.3-0.9,6.2-5.3,4-9.4c-2.1-4.2-4.4-8.4-6.6-12.6c-1.1-2-1.1-2,0.8-3.1
			c0.2-0.1,0.3-0.2,0.4-0.2c0.8-0.7,1.2-0.3,1.6,0.4c3.5,6.8,7.2,13.6,10.7,20.3c1.2,2.3,2.6,4.6,2.9,7.3c0.6,4.4-1,8-4.2,11
			c-1.4,1.4-1.5,2-0.6,3.7c1.7,3.2,3.4,6.5,5.2,9.7c1.2,2.2,2.4,4.5,3.6,6.7c0.7,1.1,1.8,1.5,2.8,1c1.1-0.6,1.5-1.7,0.9-3
			c-0.1-0.2-0.2-0.4-0.3-0.7c-2.6-4.7-5-9.5-7.6-14.2c-0.3-0.6-0.4-0.9,0.1-1.5c5.2-6.2,5.8-12.8,2-20.1c-3.4-6.5-6.7-13-10.3-19.4
			c-1-1.8-1.6-3.4-0.7-5.5c0.4-1,0.7-1.1,1.6-0.8c3.7,1.2,7.5,2.1,11.4,1.9c2.6-0.2,4.9-0.7,6.4-3c1.9-3,1.5-6.3-1.3-9.1
			c-0.7-0.7-0.5-0.8,0.2-1.2c2.1-1.2,4.1-2.6,6-4.1c2.1-1.7,4-3.5,5.3-6C137.4,55.2,136.4,51.2,133.2,49.4z M87.2,110.7
			c0.2,0.5,0.5,1,0.5,1.5c0,0.7-0.3,1.4-1,1.6c-0.7,0.3-1.4,0.2-2-0.2c-0.2-0.2-0.5-0.6-0.7-0.9c-1.7-3.1-3.4-6.3-5.1-9.5
			c-0.3-0.7-0.2-0.9,0.5-1.2c2.6-1,2.6-1,3.9,1.5C84.7,106,86,108.4,87.2,110.7z M84,81.8c-1.2,0-2.8-1.9-2.8-3.3
			c0-1.2,1-2.1,2.1-2.1s2.8,1.9,2.8,3.4C86.2,80.9,85.2,81.8,84,81.8z M101.3,103.1c0.2,0.5,0.6,1,0.5,1.4c0,1-0.3,1.6-1.1,1.9
			c-0.7,0.3-1.2,0.2-1.9-0.2c-0.4-0.2-0.7-0.7-0.8-1.1c-1.6-2.8-3-5.7-4.6-8.5c-0.3-0.6-0.3-0.8,0.2-1.2c0.3-0.2,0.7-0.4,0.9-0.6
			c1.8-1.2,1.8-1.2,2.7,0.7C98.8,98.1,100.1,100.6,101.3,103.1z M131.6,57.3c-1.2,2.1-3.1,3.5-4.9,4.9c-2,1.6-4.1,2.9-6.3,4.1
			c-0.7,0.4-1.3,0.6-2.1,0.2c-0.3-0.2-0.7-0.2-1.1-0.4c-1.2-0.3-2.2,0.2-2.7,1.2c-0.4,1.1,0,2.2,1.2,2.7c1.4,0.6,2.7,1.2,3.9,2
			c0.8,0.6,1.6,1.2,2.1,2.1c1.1,1.7,0.4,3.4-1.6,3.9c-2.8,0.7-5.5-0.1-8.2-0.6c-1.2-0.2-2.3-0.7-3.4-0.9c-1.4-0.2-1.7-1-1.8-2.4
			c-0.7-7.3-3.9-13.3-9.8-17.9c-1.1-0.8-2.2-0.8-3-0.1c-1,1-0.8,2.4,0.5,3.4c2,1.5,3.6,3.3,4.8,5.5c-7.9-6-16-4.4-24.3-1
			c0.5,1,1.3,1.5,1.9,2.1c1.5,1.6,3,3.4,4.3,5.2c1,1.3,0.9,2.6-0.1,3.4c-1.1,0.8-2.2,0.6-3.3-0.8c-1.9-2.6-3.9-4.8-6.2-7
			c-0.5-0.4-0.8-0.5-1.3-0.2c-3.8,2.4-7.2,5.2-10.4,8.3c-0.6,0.6-0.3,0.8,0.2,1.2c4.3,3.7,7.4,8.2,9.7,13.4c0.2,0.7,0.5,1.3,0.7,2
			c0.3,1.2-0.2,2.4-1.3,2.7c-1.2,0.3-2.2-0.2-2.6-1.4c-1.3-4-3.6-7.5-6.3-10.6c-0.8-1-1.9-1.9-2.8-2.8c-0.7-0.7-1.1-0.7-1.8,0.1
			c-6.3,6.7-11.8,14.2-16.7,22.2c-0.7,1.2-1.5,1.8-2.9,1.4c-0.2-0.1-0.6-0.1-1-0.1c2.2-4.7,4.7-9.1,7.3-13.3
			c5.4-8.5,11.7-16.3,19.4-22.8c5.1-4.3,10.4-8.1,17-9.7c3.1-0.8,6.3-1.1,9.5-0.5c1,0.2,1.9,0.2,2.6-0.7s0.6-1.7-0.1-2.6
			c-0.2-0.2-0.2-0.6-0.1-0.8c1-3.5,2.1-6.8,4.7-9.5c1.7-1.9,3.8-2.7,6.3-2.1c1.8,0.4,2.4,1.2,2.1,3c-0.4,2.2-1.5,4.2-2.7,6.1
			c-0.2,0.2-0.4,0.6-0.6,0.8c-0.7,1.1-0.5,2.3,0.5,3c0.9,0.7,2.2,0.4,3-0.6c1.3-1.7,2.3-3.6,3.1-5.6c0.2-0.7,0.7-1.4,1.2-1.9
			c2.7-2.5,5.5-4.7,8.8-6.3c1-0.5,2.1-0.9,3.2-0.9c1.2,0.1,1.8,0.7,1.7,1.9c-0.2,2-1.1,3.7-2.1,5.3c-2.2,3.6-4.9,6.7-8.1,9.5
			c-0.3,0.2-0.7,0.5-0.9,0.8c-0.8,0.8-0.8,2-0.1,2.8c0.7,0.8,1.9,1.1,2.8,0.3c1.3-1,2.6-2.1,3.7-3.3c0.5-0.5,1.1-0.9,1.7-1.2
			c3.4-1.2,6.8-2.5,10.5-2.1C132.1,52.8,133.1,54.8,131.6,57.3z"/>
	</g>
	<g>
		<path class="st4" d="M135.2,49.4c-1.7-1-3.6-1.2-5.6-1.1c-1.6,0.1-3.2,0.4-5,0.7c1.4-2.3,2.6-4.5,3.2-7c0.8-3.9-1-6.9-4.5-7.7
			c-1.6-0.3-3.1,0-4.6,0.5c-3.2,1.2-5.9,3-8.6,5.2c-0.6,0.4-0.7,0.5-1.2-0.2c-0.7-1.5-2.1-2.3-3.6-2.8c-4-1.2-7.6-0.4-10.6,2.5
			c-3.4,3.1-5.1,7.3-6.2,11.6c-0.2,0.9-0.6,1.2-1.5,1.2c-3.2-0.2-6.3,0.4-9.4,1.4c-6.7,2.1-12.2,6.1-17.4,10.5
			C47.6,75,38.7,88.4,31.9,103.4c-1,2.2-0.2,3.4,2.2,3.7c5.8,0.7,11.8,0.7,17.7,0.5c5.4-0.2,10.8-0.7,16-1.8
			c0.6-0.2,0.7,0.2,0.9,0.5c0.7,1.3,1.4,2.6,2.1,3.9c3.2,6,6.2,12.2,9.8,18c3.9,6.6,9.5,10.1,17.5,8.7c0.7-0.2,0.7,0.2,1,0.7
			c1.2,2.2,2.4,4.4,3.5,6.7c0.4,0.7,0.9,1.3,1.7,1.5c0.8,0.1,1.5-0.2,2-0.7c0.6-0.7,0.6-1.6,0.2-2.5c-1.5-2.9-3-5.7-4.5-8.6
			c-0.9-1.7-1.6-2.1-3.5-1.5c-4.8,1.5-8.9,0.1-12.2-3.6c-1-1.1-1.8-2.3-2.6-3.6c-3.5-6.6-7.1-13.2-10.5-19.7
			c-0.7-1.4-0.7-1.4,0.7-2.1c0.7-0.3,1.2-0.7,1.9-1.1c0.2,0.5,0.6,0.9,0.8,1.4c2,3.7,3.9,7.5,6,11.2c1.6,2.7,4.4,3.9,7.2,3
			c3.8-1.2,5.3-5.3,3.4-9.1c-2.1-3.9-4.3-7.8-6.4-11.7c-0.9-1.6-0.9-1.6,0.7-2.3c0.3-0.2,0.7-0.2,0.8-0.5c0.7-0.7,1.1-0.3,1.5,0.4
			c2.2,4.2,4.5,8.3,6.8,12.4c1.5,2.6,4,3.9,6.6,3.3c4.3-0.9,6.2-5.3,4-9.4c-2.1-4.2-4.4-8.4-6.6-12.6c-1.1-2-1.1-2,0.8-3.1
			c0.2-0.1,0.3-0.2,0.4-0.2c0.8-0.7,1.2-0.3,1.6,0.4c3.5,6.8,7.2,13.6,10.7,20.3c1.2,2.3,2.6,4.6,2.9,7.3c0.6,4.4-1,8-4.2,11
			c-1.4,1.4-1.5,2-0.6,3.7c1.7,3.2,3.4,6.5,5.2,9.7c1.2,2.2,2.4,4.5,3.6,6.7c0.7,1.1,1.8,1.5,2.8,1c1.1-0.6,1.5-1.7,0.9-3
			c-0.1-0.2-0.2-0.4-0.3-0.7c-2.6-4.7-5-9.5-7.6-14.2c-0.3-0.6-0.4-0.9,0.1-1.5c5.2-6.2,5.8-12.8,2-20.1c-3.4-6.5-6.7-13-10.3-19.4
			c-1-1.8-1.6-3.4-0.7-5.5c0.4-1,0.7-1.1,1.6-0.8c3.7,1.2,7.5,2.1,11.4,1.9c2.6-0.2,4.9-0.7,6.4-3c1.9-3,1.5-6.3-1.3-9.1
			c-0.7-0.7-0.5-0.8,0.2-1.2c2.1-1.2,4.1-2.6,6-4.1c2.1-1.7,4-3.5,5.3-6C139.4,55.2,138.4,51.2,135.2,49.4z M89.2,110.7
			c0.2,0.5,0.5,1,0.5,1.5c0,0.7-0.3,1.4-1,1.6c-0.7,0.3-1.4,0.2-2-0.2c-0.2-0.2-0.5-0.6-0.7-0.9c-1.7-3.1-3.4-6.3-5.1-9.5
			c-0.3-0.7-0.2-0.9,0.5-1.2c2.6-1,2.6-1,3.9,1.5C86.7,106,88,108.4,89.2,110.7z M86,81.8c-1.2,0-2.8-1.9-2.8-3.3
			c0-1.2,1-2.1,2.1-2.1s2.8,1.9,2.8,3.4C88.2,80.9,87.2,81.8,86,81.8z M103.3,103.1c0.2,0.5,0.6,1,0.5,1.4c0,1-0.3,1.6-1.1,1.9
			c-0.7,0.3-1.2,0.2-1.9-0.2c-0.4-0.2-0.7-0.7-0.8-1.1c-1.6-2.8-3-5.7-4.6-8.5c-0.3-0.6-0.3-0.8,0.2-1.2c0.3-0.2,0.7-0.4,0.9-0.6
			c1.8-1.2,1.8-1.2,2.7,0.7C100.8,98.1,102.1,100.6,103.3,103.1z M133.6,57.3c-1.2,2.1-3.1,3.5-4.9,4.9c-2,1.6-4.1,2.9-6.3,4.1
			c-0.7,0.4-1.3,0.6-2.1,0.2c-0.3-0.2-0.7-0.2-1.1-0.4c-1.2-0.3-2.2,0.2-2.7,1.2c-0.4,1.1,0,2.2,1.2,2.7c1.4,0.6,2.7,1.2,3.9,2
			c0.8,0.6,1.6,1.2,2.1,2.1c1.1,1.7,0.4,3.4-1.6,3.9c-2.8,0.7-5.5-0.1-8.2-0.6c-1.2-0.2-2.3-0.7-3.4-0.9c-1.4-0.2-1.7-1-1.8-2.4
			c-0.7-7.3-3.9-13.3-9.8-17.9c-1.1-0.8-2.2-0.8-3-0.1c-1,1-0.8,2.4,0.5,3.4c2,1.5,3.6,3.3,4.8,5.5c-7.9-6-16-4.4-24.3-1
			c0.5,1,1.3,1.5,1.9,2.1c1.5,1.6,3,3.4,4.3,5.2c1,1.3,0.9,2.6-0.1,3.4c-1.1,0.8-2.2,0.6-3.3-0.8c-1.9-2.6-3.9-4.8-6.2-7
			c-0.5-0.4-0.8-0.5-1.3-0.2c-3.8,2.4-7.2,5.2-10.4,8.3c-0.6,0.6-0.3,0.8,0.2,1.2c4.3,3.7,7.4,8.2,9.7,13.4c0.2,0.7,0.5,1.3,0.7,2
			c0.3,1.2-0.2,2.4-1.3,2.7c-1.2,0.3-2.2-0.2-2.6-1.4c-1.3-4-3.6-7.5-6.3-10.6c-0.8-1-1.9-1.9-2.8-2.8c-0.7-0.7-1.1-0.7-1.8,0.1
			c-6.3,6.7-11.8,14.2-16.7,22.2c-0.7,1.2-1.5,1.8-2.9,1.4c-0.2-0.1-0.6-0.1-1-0.1c2.2-4.7,4.7-9.1,7.3-13.3
			c5.4-8.5,11.7-16.3,19.4-22.8c5.1-4.3,10.4-8.1,17-9.7c3.1-0.8,6.3-1.1,9.5-0.5c1,0.2,1.9,0.2,2.6-0.7s0.6-1.7-0.1-2.6
			c-0.2-0.2-0.2-0.6-0.1-0.8c1-3.5,2.1-6.8,4.7-9.5c1.7-1.9,3.8-2.7,6.3-2.1c1.8,0.4,2.4,1.2,2.1,3c-0.4,2.2-1.5,4.2-2.7,6.1
			c-0.2,0.2-0.4,0.6-0.6,0.8c-0.7,1.1-0.5,2.3,0.5,3c0.9,0.7,2.2,0.4,3-0.6c1.3-1.7,2.3-3.6,3.1-5.6c0.2-0.7,0.7-1.4,1.2-1.9
			c2.7-2.5,5.5-4.7,8.8-6.3c1-0.5,2.1-0.9,3.2-0.9c1.2,0.1,1.8,0.7,1.7,1.9c-0.2,2-1.1,3.7-2.1,5.3c-2.2,3.6-4.9,6.7-8.1,9.5
			c-0.3,0.2-0.7,0.5-0.9,0.8c-0.8,0.8-0.8,2-0.1,2.8c0.7,0.8,1.9,1.1,2.8,0.3c1.3-1,2.6-2.1,3.7-3.3c0.5-0.5,1.1-0.9,1.7-1.2
			c3.4-1.2,6.8-2.5,10.5-2.1C134.1,52.8,135.1,54.8,133.6,57.3z"/>
	</g>
</g>
</svg>
