<?xml version="1.0" encoding="utf-8"?>
<!-- Generator: Adobe Illustrator 24.0.2, SVG Export Plug-In . SVG Version: 6.00 Build 0)  -->
<svg version="1.1" id="Layer_1" xmlns="http://www.w3.org/2000/svg" xmlns:xlink="http://www.w3.org/1999/xlink" x="0px" y="0px"
	 viewBox="0 0 180 180" style="enable-background:new 0 0 180 180;" xml:space="preserve">
<style type="text/css">
	.st0{fill:#42A047;}
	.st1{fill:#FFFFFF;}
</style>
<path class="st0" d="M147.85,179.36H32c-17.36,0-31.43-14.07-31.43-31.43V32.08C0.57,14.72,14.64,0.64,32,0.64h115.85
	c17.36,0,31.43,14.07,31.43,31.43v115.85C179.28,165.28,165.21,179.36,147.85,179.36z"/>
<path class="st1" d="M136.97,48.34c-1.73-0.99-3.62-1.15-5.59-1.07c-1.64,0.08-3.21,0.41-5.02,0.66c1.4-2.3,2.63-4.52,3.21-6.99
	c0.82-3.87-0.99-6.91-4.52-7.65c-1.56-0.33-3.13,0-4.61,0.49c-3.21,1.15-5.92,3.04-8.55,5.18c-0.58,0.41-0.74,0.49-1.15-0.25
	c-0.74-1.48-2.06-2.3-3.62-2.8c-4.03-1.23-7.57-0.41-10.61,2.55c-3.45,3.13-5.1,7.32-6.25,11.6c-0.25,0.9-0.58,1.15-1.48,1.15
	c-3.21-0.16-6.33,0.41-9.38,1.4c-6.66,2.06-12.25,6.09-17.44,10.53c-12.58,10.77-21.55,24.18-28.29,39.15
	c-0.99,2.22-0.25,3.45,2.22,3.7c5.84,0.66,11.76,0.74,17.68,0.49c5.43-0.25,10.77-0.74,16.04-1.81c0.58-0.16,0.74,0.16,0.9,0.49
	c0.74,1.32,1.4,2.63,2.14,3.95c3.21,6,6.25,12.17,9.79,18.01c3.87,6.58,9.54,10.12,17.52,8.72c0.66-0.16,0.74,0.25,0.99,0.66
	c1.15,2.22,2.39,4.44,3.54,6.66c0.41,0.74,0.9,1.32,1.73,1.48c0.82,0.08,1.48-0.16,1.97-0.74c0.58-0.74,0.58-1.56,0.16-2.47
	c-1.48-2.88-3.04-5.68-4.52-8.55c-0.9-1.73-1.56-2.06-3.54-1.48c-4.85,1.48-8.88,0.08-12.25-3.62c-0.99-1.07-1.81-2.3-2.55-3.62
	c-3.54-6.58-7.07-13.16-10.53-19.74c-0.74-1.4-0.74-1.4,0.74-2.06c0.66-0.33,1.23-0.66,1.89-1.07c0.25,0.49,0.58,0.9,0.82,1.4
	c1.97,3.7,3.95,7.48,6,11.19c1.56,2.71,4.44,3.95,7.24,3.04c3.78-1.23,5.35-5.35,3.37-9.05c-2.06-3.95-4.28-7.81-6.42-11.68
	c-0.9-1.56-0.9-1.56,0.74-2.3c0.33-0.16,0.66-0.25,0.82-0.49c0.74-0.74,1.07-0.33,1.48,0.41c2.22,4.19,4.52,8.31,6.83,12.42
	c1.48,2.55,4.03,3.87,6.58,3.29c4.28-0.9,6.17-5.26,4.03-9.38c-2.14-4.19-4.36-8.39-6.58-12.58c-1.07-1.97-1.07-1.97,0.82-3.13
	c0.16-0.08,0.33-0.16,0.41-0.25c0.82-0.74,1.15-0.33,1.56,0.41c3.54,6.83,7.16,13.57,10.69,20.32c1.23,2.3,2.55,4.61,2.88,7.32
	c0.58,4.44-0.99,7.98-4.19,11.02c-1.4,1.4-1.48,1.97-0.58,3.7c1.73,3.21,3.45,6.5,5.18,9.71c1.23,2.22,2.39,4.52,3.62,6.74
	c0.66,1.15,1.81,1.48,2.8,0.99c1.07-0.58,1.48-1.73,0.9-2.96c-0.08-0.25-0.25-0.41-0.33-0.66c-2.55-4.69-5.02-9.46-7.57-14.15
	c-0.33-0.58-0.41-0.9,0.08-1.48c5.18-6.17,5.84-12.83,1.97-20.07c-3.37-6.5-6.74-13-10.28-19.41c-0.99-1.81-1.56-3.45-0.66-5.51
	c0.41-0.99,0.66-1.07,1.56-0.82c3.7,1.15,7.48,2.06,11.43,1.89c2.55-0.16,4.93-0.74,6.42-3.04c1.89-2.96,1.48-6.33-1.32-9.05
	c-0.74-0.66-0.49-0.82,0.16-1.23c2.14-1.23,4.11-2.55,6-4.11c2.06-1.73,4.03-3.54,5.26-6C141.16,54.1,140.18,50.07,136.97,48.34z
	 M90.99,109.61c0.25,0.49,0.49,0.99,0.49,1.48c0,0.74-0.33,1.4-0.99,1.64c-0.66,0.33-1.4,0.25-1.97-0.25
	c-0.25-0.25-0.49-0.58-0.66-0.9c-1.73-3.13-3.37-6.33-5.1-9.46c-0.33-0.66-0.16-0.9,0.49-1.15c2.63-0.99,2.63-0.99,3.95,1.48
	C88.44,104.92,89.76,107.31,90.99,109.61z M87.79,80.74c-1.23,0-2.8-1.89-2.8-3.29c0-1.15,0.99-2.14,2.14-2.14s2.8,1.89,2.8,3.37
	C89.92,79.84,88.94,80.74,87.79,80.74z M105.06,101.96c0.25,0.49,0.58,0.99,0.49,1.4c0,0.99-0.33,1.56-1.07,1.89
	c-0.66,0.33-1.23,0.16-1.89-0.25c-0.41-0.25-0.66-0.66-0.82-1.07c-1.56-2.8-3.04-5.68-4.61-8.47c-0.33-0.58-0.33-0.82,0.25-1.15
	c0.33-0.16,0.66-0.41,0.9-0.58c1.81-1.15,1.81-1.15,2.71,0.66C102.51,97.03,103.82,99.5,105.06,101.96z M135.32,56.23
	c-1.23,2.06-3.13,3.54-4.93,4.93c-1.97,1.56-4.11,2.88-6.33,4.11c-0.66,0.41-1.32,0.58-2.06,0.16c-0.33-0.16-0.66-0.25-1.07-0.41
	c-1.15-0.33-2.22,0.16-2.71,1.15c-0.41,1.07,0,2.22,1.15,2.71c1.4,0.58,2.71,1.15,3.95,1.97c0.82,0.58,1.56,1.15,2.14,2.06
	c1.07,1.73,0.41,3.45-1.56,3.87c-2.8,0.66-5.51-0.08-8.22-0.58c-1.15-0.25-2.3-0.74-3.45-0.9c-1.4-0.25-1.73-0.99-1.81-2.39
	c-0.66-7.32-3.95-13.32-9.79-17.93c-1.07-0.82-2.22-0.82-3.04-0.08c-0.99,0.99-0.82,2.39,0.49,3.37c1.97,1.48,3.62,3.29,4.85,5.51
	c-7.9-6-16.04-4.36-24.35-0.99c0.49,0.99,1.32,1.48,1.89,2.14c1.48,1.64,2.96,3.37,4.28,5.18c0.99,1.32,0.9,2.55-0.08,3.37
	c-1.07,0.82-2.22,0.58-3.29-0.82c-1.89-2.55-3.95-4.85-6.25-6.99c-0.49-0.41-0.82-0.49-1.32-0.16c-3.78,2.39-7.24,5.18-10.45,8.31
	c-0.58,0.58-0.33,0.82,0.16,1.23c4.28,3.7,7.4,8.22,9.71,13.41c0.25,0.66,0.49,1.32,0.74,1.97c0.33,1.23-0.25,2.39-1.32,2.71
	c-1.15,0.33-2.22-0.16-2.63-1.4c-1.32-4.03-3.62-7.48-6.33-10.61c-0.82-0.99-1.89-1.89-2.8-2.8c-0.66-0.74-1.07-0.74-1.81,0.08
	c-6.33,6.74-11.84,14.23-16.7,22.21c-0.74,1.23-1.48,1.81-2.88,1.4c-0.25-0.08-0.58-0.08-0.99-0.08c2.22-4.69,4.69-9.13,7.32-13.32
	c5.43-8.47,11.68-16.28,19.41-22.78c5.1-4.28,10.45-8.06,17.03-9.71c3.13-0.82,6.33-1.07,9.54-0.49c0.99,0.16,1.89,0.16,2.55-0.74
	c0.66-0.9,0.58-1.73-0.08-2.63c-0.25-0.25-0.16-0.58-0.08-0.82c0.99-3.45,2.14-6.83,4.69-9.54c1.73-1.89,3.78-2.71,6.33-2.14
	c1.81,0.41,2.39,1.23,2.06,3.04c-0.41,2.22-1.48,4.19-2.71,6.09c-0.16,0.25-0.41,0.58-0.58,0.82c-0.66,1.07-0.49,2.3,0.49,2.96
	c0.9,0.66,2.22,0.41,2.96-0.58c1.32-1.73,2.3-3.62,3.13-5.59c0.25-0.74,0.66-1.4,1.23-1.89c2.71-2.47,5.51-4.69,8.8-6.33
	c0.99-0.49,2.06-0.9,3.21-0.9c1.23,0.08,1.81,0.66,1.73,1.89c-0.16,1.97-1.07,3.7-2.06,5.35c-2.22,3.62-4.93,6.66-8.14,9.46
	c-0.33,0.25-0.66,0.49-0.9,0.82c-0.82,0.82-0.82,1.97-0.08,2.8c0.74,0.82,1.89,1.07,2.8,0.33c1.32-0.99,2.55-2.14,3.7-3.29
	c0.49-0.49,1.07-0.9,1.73-1.15c3.37-1.23,6.83-2.47,10.53-2.14C135.9,51.71,136.89,53.68,135.32,56.23z"/>
</svg>
