<?xml version="1.0" encoding="utf-8"?>
<!-- Generator: Adobe Illustrator 24.0.2, SVG Export Plug-In . SVG Version: 6.00 Build 0)  -->
<svg version="1.1" id="Layer_1" xmlns="http://www.w3.org/2000/svg" xmlns:xlink="http://www.w3.org/1999/xlink" x="0px" y="0px"
	 viewBox="0 0 512 155.4" style="enable-background:new 0 0 512 155.4;" xml:space="preserve">
<style type="text/css">
	.st0{fill:url(#SVGID_1_);}
</style>
<linearGradient id="SVGID_1_" gradientUnits="userSpaceOnUse" x1="227.9475" y1="296.3706" x2="301.1405" y2="-196.4731">
	<stop  offset="0.2707" style="stop-color:#E83170"/>
	<stop  offset="0.6046" style="stop-color:#F79342"/>
</linearGradient>
<path class="st0" d="M45.8,99.7c-0.2-1.8-0.4-3.7-0.4-5.5l0,0C45.4,96.1,45.6,97.9,45.8,99.7z M199.2,127.5
	c-4.4,0.1-8.9-0.2-13.3-0.9c-3.1-0.4-6.1-1.6-8.8-3.3c-2.4-1.7-4.2-4-5.2-6.7c-1.4-3.6-2.2-7.3-2.5-11.1c-0.4-4.5-0.7-10.1-0.7-16.5
	c0-6.5,0.2-12,0.7-16.5c0.3-3.8,1.1-7.5,2.5-11.1c1.1-2.7,2.9-5,5.2-6.7c2.6-1.8,5.6-2.9,8.8-3.3c4.4-0.7,8.8-1,13.3-1
	c2,0,4.1,0.1,6.3,0.2c2.2,0.1,4.2,0.3,6.2,0.5c1.7,0.2,3.5,0.5,5.2,0.9v7.6c-1.7-0.2-3.4-0.4-5.2-0.6c-1.8-0.2-3.6-0.3-5.3-0.4
	c-1.8-0.1-3.3-0.1-4.7-0.1c-3.6,0-7.1,0.1-10.6,0.6c-2.4,0.2-4.7,0.9-6.8,2.1c-1.8,1.2-3.1,2.9-3.8,4.9c-1,2.9-1.5,5.9-1.7,8.9
	c-0.3,3.7-0.4,8.3-0.4,14s0.1,10.3,0.4,14c0.2,3,0.7,6,1.7,8.9c0.7,2,2,3.8,3.8,4.9c2.1,1.2,4.4,1.9,6.8,2.1
	c3.5,0.4,7.1,0.6,10.6,0.5c2.5,0,5.2-0.1,8.1-0.3c2.9-0.2,5.4-0.5,7.6-0.8v7.8c-1.5,0.3-3.3,0.5-5.4,0.7c-2.1,0.2-4.2,0.3-6.4,0.5
	C203.3,127.5,201.2,127.5,199.2,127.5z M233,126.6V45.2h9v32.9h0.5c0.8-1.6,1.9-3,3.2-4.2c1.7-1.4,3.6-2.4,5.7-2.9
	c3-0.8,6.1-1.1,9.2-1c3.4-0.1,6.7,0.3,9.9,1.3c2.3,0.7,4.3,2,5.8,3.9c1.4,2,2.4,4.3,2.7,6.8c0.5,3.3,0.7,6.5,0.7,9.8v34.9h-8.9V94.7
	c0-3-0.1-6-0.5-9c-0.2-1.8-0.9-3.6-1.9-5c-1.1-1.2-2.6-2-4.2-2.2c-2.4-0.4-4.8-0.6-7.2-0.5c-2.9-0.1-5.8,0.3-8.4,1.4
	c-1.9,0.8-3.5,2.1-4.5,3.9c-1,1.9-1.6,4.1-1.8,6.3c-0.2,2.4-0.3,5.2-0.3,8.4v28.9H233z M320.8,127.5c-3.8,0.1-7.7-0.2-11.5-0.8
	c-2.6-0.4-5-1.3-7.2-2.7c-1.8-1.3-3.1-3.1-3.9-5.2c-0.9-2.7-1.5-5.5-1.6-8.3c-0.2-3.3-0.3-7.3-0.3-11.9c0-4.6,0.1-8.6,0.3-11.9
	c0.1-2.8,0.7-5.6,1.6-8.3c0.8-2.1,2.1-3.9,3.9-5.1c2.2-1.4,4.6-2.3,7.2-2.7c7.6-1.1,15.3-1.1,23,0c2.6,0.4,5,1.3,7.2,2.7
	c1.8,1.3,3.2,3.1,4,5.1c0.9,2.7,1.5,5.5,1.6,8.3c0.2,3.3,0.3,7.3,0.3,11.9c0,4.6-0.1,8.6-0.3,11.9c-0.1,2.8-0.7,5.6-1.6,8.3
	c-0.8,2.1-2.1,3.9-4,5.2c-2.2,1.4-4.6,2.3-7.2,2.7C328.5,127.3,324.7,127.6,320.8,127.5z M320.8,120c3.1,0.1,6.1-0.2,9.1-0.8
	c1.8-0.3,3.5-1.4,4.6-2.9c1.1-2,1.6-4.2,1.6-6.4c0.2-2.8,0.3-6.5,0.3-11.1c0-4.6-0.1-8.3-0.3-11.1c0-2.2-0.6-4.4-1.6-6.4
	c-1.1-1.5-2.7-2.6-4.6-2.9c-6-1-12.1-1-18.1,0c-1.9,0.3-3.5,1.4-4.5,2.9c-1,2-1.6,4.2-1.6,6.4c-0.2,2.8-0.3,6.5-0.3,11.1
	c0,4.6,0.1,8.3,0.3,11.1c0.1,2.2,0.6,4.4,1.6,6.4c1,1.6,2.7,2.6,4.5,2.9C314.7,119.8,317.8,120,320.8,120z M361.9,126.6V45.2h9v81.4
	H361.9z M389.5,54.9v-9.7h9.5v9.7H389.5z M389.8,126.7V70.7h9v55.9L389.8,126.7z M422.4,126.6V78.3H411v-7.6h11.4v-8.9
	c-0.1-2.6,0.2-5.2,0.8-7.8c0.4-1.8,1.2-3.5,2.5-4.9c1.2-1.3,2.8-2.2,4.4-2.7c2.2-0.6,4.4-1,6.6-1.1c2.6-0.1,5.6-0.2,9-0.2V52
	c-2.5,0-4.9,0.1-7.3,0.3c-1.5,0.1-3,0.6-4.3,1.2c-1,0.5-1.8,1.4-2.1,2.5c-0.4,1.4-0.6,2.8-0.6,4.3v10.4h14.4v7.6h-14.4v48.3H422.4z
	 M479.9,149.2c-2.1,0-4.3-0.1-6.6-0.2l-6.6-0.3c-2.1-0.1-3.9-0.3-5.5-0.5v-7.1c2.4,0.1,4.6,0.2,6.6,0.3c2,0.1,3.9,0.2,5.6,0.2
	c1.7,0,3.3,0.1,4.7,0.1c3.4,0.1,6.7-0.2,10-1c2.1-0.5,4-1.6,5.4-3.2c1.3-1.8,2-3.8,2.2-6c0.4-3,0.5-6.1,0.5-9.1v-3.3h-0.7
	c-0.7,1.6-1.7,3-3,4.1c-1.7,1.4-3.6,2.4-5.7,2.9c-3.1,0.8-6.3,1.2-9.4,1.1c-3.4,0.1-6.7-0.3-9.9-1.3c-2.3-0.7-4.3-2.1-5.8-4
	c-1.4-2-2.3-4.3-2.7-6.7c-0.5-3.2-0.8-6.4-0.7-9.6V70.7h9v31.7c0,3,0.1,6.1,0.4,9.1c0.1,1.9,0.8,3.6,1.9,5.1c1.1,1.2,2.6,2,4.2,2.2
	c2.4,0.4,4.7,0.6,7.1,0.5c2.9,0.1,5.8-0.3,8.6-1.4c1.9-0.8,3.5-2.2,4.4-4c1-2,1.6-4.1,1.8-6.3c0.3-2.7,0.4-5.5,0.4-8.3V70.7h8.9v49
	c0,4.6-0.2,9.1-0.8,13.6c-0.4,3.3-1.5,6.4-3.4,9.1c-1.9,2.5-4.6,4.2-7.6,5.1C488.9,148.8,484.4,149.4,479.9,149.2z M53.2,24.5
	c-2.4-1.3-4.6-2.7-6.9-3.9c-1.5-0.8-2.8-0.3-3.3,0.9s0,2.5,1.5,3.1c5.7,2.4,10.1,7.2,11.9,13.2c0.5,1.6,1.6,2.2,2.8,1.8
	c1.3-0.4,1.9-1.6,1.4-3.1c-0.1-0.4-0.2-0.8-0.3-1.3c2.2,0.1,4.3,0.3,6.4,0.1c13.8-0.8,23.5-9.5,25.8-23.2c0.4-2.5,0.4-4.9-1.5-6.7
	c-1-1.1-2.3-1.9-3.7-2.3C71.5-1,57.1,7.9,53.4,23.8C53.3,24,53.2,24.3,53.2,24.5z M105.5,106.3c-2,0-3.8-1.1-4.8-2.9
	c-1.8-3.3-3.3-7.9-4.5-13.8c0-0.1,0-0.1-0.2-0.1l0,0c-0.1,0-0.1,0-0.2,0.1c-3.3,7.7-4.7,17.7-5.2,24.8c-0.1,2.4-1.9,4.4-4.3,4.9
	c-0.4,0.1-0.8,0.1-1.2,0.1c-2,0-3.8-1.1-4.8-2.8c-4.5-7.9-6.7-20-7.8-28.8c0-0.1,0-0.1-0.2-0.2h0c-0.1,0-0.1,0-0.1,0.1
	c-6.5,19.1-2.3,43.2-1.6,46.8c0,0.1,0,0.2,0,0.3l0,0c0,0.8-0.6,1.5-1.4,1.5c-0.1,0-0.2,0-0.4,0h-0.1c-1.1-0.3-6.6-3.9-9.4-6.2
	c-33.6-28.4-16.5-74.7-5.5-85c0.5-0.4,0.5-1.1,0.1-1.5c-0.2-0.2-0.5-0.4-0.8-0.4h0.3C48,43,42.3,44,37.1,46.1
	c-24.4,9.7-36.5,37.4-26.9,61.9c4.6,12.2,12.5,22.1,22.6,30.2c12.7,10.2,27.4,14.6,43.5,15.2c3.7,0.1,7.4-0.1,11.1-0.2l3-0.7
	c0.3-0.2,0.5-0.3,0.8-0.4c3.8-1.7,7.8-3.2,11.4-5.1c16.1-8.6,28-21,34.4-38.3c1-2.7,1.9-5.5,2.6-8.3c-17.8,0.5-28.1,4-31.9,5.6
	C107,106.2,106.3,106.3,105.5,106.3z M140.8,95c0.9-5.8,1.7-11.5,0.4-19.5C138,56,127,42.7,108.2,36.5h-0.2
	c-9.2-3-19.4-3.1-28.3,0.7C49.8,50.1,48,80.6,50,96.3c1.6,13.1,8.3,24.4,14.5,31.7c-1.2-8.9-2.5-26.1,2.8-41.9
	c0.7-2.2,2.8-3.7,5.2-3.7h0.6c2.6,0.2,4.6,2.3,4.9,4.9c1,7.9,2.8,18.6,6.6,25.8c0.2,0.3,1,0.2,1-0.2c0.6-7.4,2.1-17.4,5.5-25.4
	c0.8-2,2.8-3.3,5-3.3c0.2,0,0.4,0,0.6,0c2.4,0.2,4.4,2,4.8,4.4c0.9,3.8,2.1,7.5,3.5,11.1c0.3,0.8,1.1,1.1,2.2,0.7
	C118,97.1,129.3,95.3,140.8,95 M136.2,97.4L136.2,97.4L136.2,97.4L136.2,97.4z"/>
<image style="overflow:visible;" width="1025" height="1025" xlink:href="../../App icon/1x/Icon 2mdpi.png"  transform="matrix(0.3485 0 0 0.4423 -422.2258 -137.422)">
</image>
</svg>
