<?xml version="1.0" encoding="utf-8"?>
<!-- Generator: Adobe Illustrator 23.0.1, SVG Export Plug-In . SVG Version: 6.00 Build 0)  -->
<svg version="1.1" id="Vrstva_1" xmlns="http://www.w3.org/2000/svg" xmlns:xlink="http://www.w3.org/1999/xlink" x="0px" y="0px"
	 viewBox="0 0 600 200" style="enable-background:new 0 0 600 200;" xml:space="preserve">
<style type="text/css">
	.st0{fill:#42A047;}
</style>
<path class="st0" d="M265.2,80.3c3.2-1.3,6.1-2.5,9.1-3.6c5-1.7,10.1-2.7,15.5-2.1c9.5,1.1,13.8,7.2,15.4,14.9c0.6,3,0.8,6,0.8,9
	c0,8.2,0.1,16.3,0,24.5c0,2.6,0.6,4.6,3.1,5.5c4.5,1.6,6.2,4.5,5.2,9.3c-0.7,3.2-0.3,3.3-3.6,3.3c-9.7,0-19.4,0-29.1,0
	c-1.6,0-2.2-0.3-2.2-2c0-2.8-0.2-5.7-0.4-8.5c-0.1-1,0.1-1.5,1.2-1.9c1.6-0.4,3.8-0.3,4.6-1.6c0.7-1.3,0.2-3.3,0.2-5
	c0-7.5,0-15-0.1-22.4c-0.1-7.2-2.1-9-9.3-8.8c-3.2,0.1-6.3,0.7-9.4,1.2c-0.9,0.1-1,0.6-1,1.4c0,10.2,0,20.5,0,30.7
	c0,1.7,0.7,3,2.2,3.8c1.2,0.7,2.4,1.5,3.7,2.1c2.1,0.9,3,2.2,2.5,4.5c-0.2,0.8-0.2,1.7-0.2,2.6c-0.3,3.8-0.3,3.8-4,3.8
	c-10.2,0-20.5,0-30.7,0c-1.4,0-1.8-0.4-1.8-1.8c0-2.7-0.1-5.4-0.4-8.1c-0.2-1.8,0.5-2.5,2.1-2.8c1.4-0.3,2.7-0.8,4.1-1.1
	c1.1-0.2,1.5-0.7,1.5-1.9c0-19.7-0.1-39.3,0-59c0-2.6-0.8-4.6-3.3-5.3c-3.8-1.2-5.1-3.4-4.5-7.4c0.6-4.3,0.3-4.3,4.8-5.2
	c6.7-1.3,13.4-2.2,20.1-3.1c1.8-0.2,2.7,0.2,3.1,2c0.5,2.2,0.9,4.3,0.9,6.6C265.1,62.7,265.2,71.4,265.2,80.3z"/>
<path class="st0" d="M181.4,96.7c-0.1,5.2,0.4,10.4,2.2,15.3c2.8,7.7,8.5,11.5,16.5,12.2c7.3,0.6,14.3-1.2,21.3-3
	c1.4-0.4,2.9-0.7,4.3-1.2c0.9-0.3,1.2,0,1.4,0.8c1.1,3.9,2.2,7.8,3.3,11.6c0.4,1.3-0.5,1.5-1.2,1.9c-6.2,3.7-13,6.1-20.1,7.5
	c-8.6,1.7-17.3,1.8-25.8-0.7c-11.2-3.4-18.7-11-22.4-22c-4.4-13.3-4.8-26.8,0.1-40c5.1-13.8,15.5-21.3,29.8-23.5
	c13-2,25.4,0.6,37.5,5.5c1,0.4,1.2,0.9,1.1,1.8c-0.8,7.6-2,15.1-3.3,22.6c-0.1,0.8-0.4,1.2-1.3,1.2c-2.4,0.1-4.7,0.2-7.1,0.4
	c-1.1,0.1-1.7-0.3-2.3-1.2c-2.2-3.4-4.6-6.7-6.8-10c-0.6-1-1.4-1.5-2.5-1.8c-6.2-1.4-12.4-1.5-18.7-0.6c-1.2,0.2-1.7,0.7-2.1,1.7
	C182.4,82.1,181.5,89.3,181.4,96.7z"/>
<path class="st0" d="M558.9,119.4c3.2-7.9,6.1-15.3,9.1-22.7c0.7-1.8,1.4-3.6,2.2-5.4c0.8-1.7,0.4-2.9-1.4-3.6
	c-1.6-0.7-4-0.8-4.7-2.4c-0.6-1.4,0.1-3.4,0.3-5.2c0.4-4.5,0.4-4.5,4.9-4.5c5.9,0,11.7,0.1,17.6,0c1.5,0,2,0.5,2.1,1.9
	c0.2,2.3,0.5,4.7,0.8,7c0.1,0.8,0,1.4-0.3,2.1c-9.8,20.9-18.9,42.2-29.4,62.8c-3.3,6.5-7,12.7-10.9,18.9c-0.8,1.2-1.3,1.3-2.4,0.4
	c-5.2-3.7-9.6-8.2-13.6-13.2c-0.8-1-0.8-1.6,0.1-2.4c3.9-3.7,7.7-7.5,11.6-11.3c0.9-0.9,1.1-1.5,0.6-2.8
	c-6-15.6-11.9-31.2-17.8-46.9c-1-2.7-2.2-5.4-4.3-7.5c-1.7-1.7-1.1-3.6-1-5.5c0.2-3.6,0.2-3.6,3.8-3.6c8.9,0,17.8,0.1,26.7,0
	c1.6,0,2.1,0.6,2.2,2c0.2,2.4,0.5,4.8,0.9,7.2c0.2,1.2-0.2,1.7-1.4,1.9c-1.5,0.2-2.8,0.8-4.3,1.1c-1.2,0.2-1.3,0.7-1,1.8
	C552.4,99.3,555.6,109.1,558.9,119.4z"/>
<path class="st0" d="M491.8,141.2c-5.9,0-11.9,0-17.8,0c-1.4,0-1.9-0.3-1.8-1.8c0-2.8-0.1-5.7-0.2-8.5c0-1,0.3-1.4,1.2-1.7
	c2-0.5,4-1.3,6-1.8c1.1-0.3,1.5-0.7,1.5-1.9c-0.1-11.3-0.1-22.5,0-33.8c0-1.3-0.4-1.6-1.6-1.6c-1.9,0.1-3.8-0.1-5.7,0
	c-1.1,0-1.6-0.2-1.5-1.4c0.1-3.2,0.1-6.3,0-9.5c0-1.1,0.4-1.6,1.5-1.6c1.9,0,3.8-0.3,5.6-0.3c1.3,0,1.7-0.5,1.7-1.8
	c0-4.3-0.3-8.6,0.6-12.9c1.9-9.1,7.5-14.5,16.4-16.6c7.8-1.8,15.7-0.7,23.5,0.5c1,0.2,1.1,0.6,1,1.5c-0.8,4.8-1.6,9.5-2.4,14.3
	c-0.2,1.1-0.5,1.5-1.7,1.1c-4.8-1.4-9.7-2.2-14.7-2.2c-1.3,0-1.7,0.3-1.7,1.7c0.1,3.8,0.1,7.5,0,11.3c0,1.5,0.5,1.8,1.8,1.7
	c3.6-0.3,7.3-0.3,10.9-0.6c1.3-0.1,1.6,0.3,1.6,1.5c-0.1,4-0.1,8.1,0,12.1c0,1.4-0.6,1.6-1.8,1.6c-3.6-0.1-7.1-0.1-10.7-0.2
	c-1.3-0.1-1.9,0.2-1.8,1.7c0.1,10.4,0.1,20.8,0,31.1c0,2.4,0.8,4.1,3.1,5.1c2,0.9,3.9,2.1,5.9,3.2c0.9,0.5,1.4,1,1.3,2.2
	c-0.2,1.9-0.2,3.8-0.2,5.7c0,1.3-0.4,1.7-1.7,1.7C504,141.1,497.9,141.2,491.8,141.2z"/>
<path class="st0" d="M415.5,88.4c0,11.7,0,23.3,0,35c0,2.5,0.8,4,3,5.2c1.9,1,4.6,1.6,5.4,3.6c0.7,1.8,0,4.2-0.1,6.4
	c-0.2,2.7-0.2,2.7-2.9,2.7c-11,0-22,0-32.9,0c-1.5,0-1.9-0.4-1.9-1.9c0-2.8-0.1-5.5-0.3-8.3c-0.1-1,0.2-1.6,1.3-1.8
	c2-0.5,4-1.2,6-1.8c1-0.3,1.5-0.7,1.5-1.9c-0.1-19.7-0.1-39.5,0-59.2c0-2.4-0.8-4-3-4.9c-0.6-0.3-1.2-0.6-1.8-0.9
	c-3.4-1.8-3.4-1.8-3.1-5.6c0.1-1.4,0.3-2.8,0.3-4.2c0-1.1,0.4-1.5,1.5-1.7c7.7-1.3,15.4-2.7,23.1-3.6c1.8-0.2,2.8,0.1,3.2,2.1
	c0.4,2,0.9,3.9,0.9,6C415.5,65.1,415.5,76.8,415.5,88.4C415.5,88.4,415.5,88.4,415.5,88.4z"/>
<path class="st0" d="M458.4,103.9c0,6.6,0.1,13.2,0,19.8c0,2.2,0.7,3.8,2.7,4.7c1,0.5,1.9,1.3,3,1.7c2.5,0.9,3.4,2.5,2.8,5.1
	c-0.1,0.5-0.1,1.1-0.1,1.6c-0.1,1.4,0.3,3.3-0.5,4.1c-0.9,1-2.8,0.3-4.2,0.3c-10.4,0-20.9,0-31.3,0c-1.4,0-1.8-0.4-1.8-1.8
	c0-2.8-0.1-5.5-0.3-8.3c-0.1-1.1,0.3-1.7,1.4-2c2-0.5,4-1.2,6-1.7c0.9-0.3,1.4-0.6,1.4-1.8c-0.1-9.9-0.1-19.8,0-29.7
	c0-2.2-0.8-3.9-2.9-4.9c-0.2-0.1-0.3-0.2-0.5-0.3c-4.6-1.3-5.2-4.4-4.4-8.6c0.6-3.5,0.4-3.5,3.8-4.1c7-1.2,13.8-2.8,20.9-3.3
	c1.7-0.1,2.3,0.4,2.7,2c1,3.5,1.5,6.9,1.4,10.5C458.3,92.8,458.4,98.4,458.4,103.9C458.4,103.9,458.4,103.9,458.4,103.9z"/>
<path class="st0" d="M460,61.2c0.2,0.8-0.4,0.9-0.9,1.1c-6.3,1.7-12.7,3.4-19,5.2c-1,0.3-1.2-0.2-1.4-0.9c-1.5-5.6-3-11.3-4.6-16.9
	c-0.3-1,0-1.3,0.9-1.5c6.3-1.6,12.6-3.3,18.9-5c0.8-0.2,1.2-0.2,1.4,0.7c1.5,5.7,3.1,11.4,4.6,17.1C460,61,460,61.1,460,61.2z"/>
<path class="st0" d="M137.4,49.1c-2.1-1.2-4.4-1.4-6.8-1.3c-2,0.1-3.9,0.5-6.1,0.8c1.7-2.8,3.2-5.5,3.9-8.5c1-4.7-1.2-8.4-5.5-9.3
	c-1.9-0.4-3.8,0-5.6,0.6c-3.9,1.4-7.2,3.7-10.4,6.3c-0.7,0.5-0.9,0.6-1.4-0.3c-0.9-1.8-2.5-2.8-4.4-3.4c-4.9-1.5-9.2-0.5-12.9,3.1
	C84,40.9,82,46,80.6,51.2c-0.3,1.1-0.7,1.4-1.8,1.4c-3.9-0.2-7.7,0.5-11.4,1.7c-8.1,2.5-14.9,7.4-21.2,12.8
	C30.9,80.2,20,96.5,11.8,114.7c-1.2,2.7-0.3,4.2,2.7,4.5c7.1,0.8,14.3,0.9,21.5,0.6c6.6-0.3,13.1-0.9,19.5-2.2
	c0.7-0.2,0.9,0.2,1.1,0.6c0.9,1.6,1.7,3.2,2.6,4.8c3.9,7.3,7.6,14.8,11.9,21.9c4.7,8,11.6,12.3,21.3,10.6c0.8-0.2,0.9,0.3,1.2,0.8
	c1.4,2.7,2.9,5.4,4.3,8.1c0.5,0.9,1.1,1.6,2.1,1.8c1,0.1,1.8-0.2,2.4-0.9c0.7-0.9,0.7-1.9,0.2-3c-1.8-3.5-3.7-6.9-5.5-10.4
	c-1.1-2.1-1.9-2.5-4.3-1.8c-5.9,1.8-10.8,0.1-14.9-4.4c-1.2-1.3-2.2-2.8-3.1-4.4c-4.3-8-8.6-16-12.8-24c-0.9-1.7-0.9-1.7,0.9-2.5
	c0.8-0.4,1.5-0.8,2.3-1.3c0.3,0.6,0.7,1.1,1,1.7c2.4,4.5,4.8,9.1,7.3,13.6c1.9,3.3,5.4,4.8,8.8,3.7c4.6-1.5,6.5-6.5,4.1-11
	c-2.5-4.8-5.2-9.5-7.8-14.2c-1.1-1.9-1.1-1.9,0.9-2.8c0.4-0.2,0.8-0.3,1-0.6c0.9-0.9,1.3-0.4,1.8,0.5c2.7,5.1,5.5,10.1,8.3,15.1
	c1.8,3.1,4.9,4.7,8,4c5.2-1.1,7.5-6.4,4.9-11.4c-2.6-5.1-5.3-10.2-8-15.3c-1.3-2.4-1.3-2.4,1-3.8c0.2-0.1,0.4-0.2,0.5-0.3
	c1-0.9,1.4-0.4,1.9,0.5c4.3,8.3,8.7,16.5,13,24.7c1.5,2.8,3.1,5.6,3.5,8.9c0.7,5.4-1.2,9.7-5.1,13.4c-1.7,1.7-1.8,2.4-0.7,4.5
	c2.1,3.9,4.2,7.9,6.3,11.8c1.5,2.7,2.9,5.5,4.4,8.2c0.8,1.4,2.2,1.8,3.4,1.2c1.3-0.7,1.8-2.1,1.1-3.6c-0.1-0.3-0.3-0.5-0.4-0.8
	c-3.1-5.7-6.1-11.5-9.2-17.2c-0.4-0.7-0.5-1.1,0.1-1.8c6.3-7.5,7.1-15.6,2.4-24.4c-4.1-7.9-8.2-15.8-12.5-23.6
	c-1.2-2.2-1.9-4.2-0.8-6.7c0.5-1.2,0.8-1.3,1.9-1c4.5,1.4,9.1,2.5,13.9,2.3c3.1-0.2,6-0.9,7.8-3.7c2.3-3.6,1.8-7.7-1.6-11
	c-0.9-0.8-0.6-1,0.2-1.5c2.6-1.5,5-3.1,7.3-5c2.5-2.1,4.9-4.3,6.4-7.3C142.5,56.1,141.3,51.2,137.4,49.1z M81.5,123.6
	c0.3,0.6,0.6,1.2,0.6,1.8c0,0.9-0.4,1.7-1.2,2c-0.8,0.4-1.7,0.3-2.4-0.3c-0.3-0.3-0.6-0.7-0.8-1.1c-2.1-3.8-4.1-7.7-6.2-11.5
	c-0.4-0.8-0.2-1.1,0.6-1.4c3.2-1.2,3.2-1.2,4.8,1.8C78.4,117.9,80,120.8,81.5,123.6z M77.6,88.5c-1.5,0-3.4-2.3-3.4-4
	c0-1.4,1.2-2.6,2.6-2.6c1.4,0,3.4,2.3,3.4,4.1C80.2,87.4,79,88.5,77.6,88.5z M98.6,114.3c0.3,0.6,0.7,1.2,0.6,1.7
	c0,1.2-0.4,1.9-1.3,2.3c-0.8,0.4-1.5,0.2-2.3-0.3c-0.5-0.3-0.8-0.8-1-1.3c-1.9-3.4-3.7-6.9-5.6-10.3c-0.4-0.7-0.4-1,0.3-1.4
	c0.4-0.2,0.8-0.5,1.1-0.7c2.2-1.4,2.2-1.4,3.3,0.8C95.5,108.3,97.1,111.3,98.6,114.3z M135.4,58.7c-1.5,2.5-3.8,4.3-6,6
	c-2.4,1.9-5,3.5-7.7,5c-0.8,0.5-1.6,0.7-2.5,0.2c-0.4-0.2-0.8-0.3-1.3-0.5c-1.4-0.4-2.7,0.2-3.3,1.4c-0.5,1.3,0,2.7,1.4,3.3
	c1.7,0.7,3.3,1.4,4.8,2.4c1,0.7,1.9,1.4,2.6,2.5c1.3,2.1,0.5,4.2-1.9,4.7c-3.4,0.8-6.7-0.1-10-0.7c-1.4-0.3-2.8-0.9-4.2-1.1
	c-1.7-0.3-2.1-1.2-2.2-2.9c-0.8-8.9-4.8-16.2-11.9-21.8c-1.3-1-2.7-1-3.7-0.1c-1.2,1.2-1,2.9,0.6,4.1c2.4,1.8,4.4,4,5.9,6.7
	c-9.6-7.3-19.5-5.3-29.6-1.2c0.6,1.2,1.6,1.8,2.3,2.6c1.8,2,3.6,4.1,5.2,6.3c1.2,1.6,1.1,3.1-0.1,4.1c-1.3,1-2.7,0.7-4-1
	c-2.3-3.1-4.8-5.9-7.6-8.5c-0.6-0.5-1-0.6-1.6-0.2c-4.6,2.9-8.8,6.3-12.7,10.1c-0.7,0.7-0.4,1,0.2,1.5c5.2,4.5,9,10,11.8,16.3
	c0.3,0.8,0.6,1.6,0.9,2.4c0.4,1.5-0.3,2.9-1.6,3.3c-1.4,0.4-2.7-0.2-3.2-1.7c-1.6-4.9-4.4-9.1-7.7-12.9c-1-1.2-2.3-2.3-3.4-3.4
	c-0.8-0.9-1.3-0.9-2.2,0.1C35,93.9,28.3,103,22.4,112.7c-0.9,1.5-1.8,2.2-3.5,1.7c-0.3-0.1-0.7-0.1-1.2-0.1
	c2.7-5.7,5.7-11.1,8.9-16.2c6.6-10.3,14.2-19.8,23.6-27.7c6.2-5.2,12.7-9.8,20.7-11.8c3.8-1,7.7-1.3,11.6-0.6
	c1.2,0.2,2.3,0.2,3.1-0.9c0.8-1.1,0.7-2.1-0.1-3.2c-0.3-0.3-0.2-0.7-0.1-1c1.2-4.2,2.6-8.3,5.7-11.6c2.1-2.3,4.6-3.3,7.7-2.6
	c2.2,0.5,2.9,1.5,2.5,3.7c-0.5,2.7-1.8,5.1-3.3,7.4c-0.2,0.3-0.5,0.7-0.7,1c-0.8,1.3-0.6,2.8,0.6,3.6c1.1,0.8,2.7,0.5,3.6-0.7
	c1.6-2.1,2.8-4.4,3.8-6.8c0.3-0.9,0.8-1.7,1.5-2.3c3.3-3,6.7-5.7,10.7-7.7c1.2-0.6,2.5-1.1,3.9-1.1c1.5,0.1,2.2,0.8,2.1,2.3
	c-0.2,2.4-1.3,4.5-2.5,6.5c-2.7,4.4-6,8.1-9.9,11.5c-0.4,0.3-0.8,0.6-1.1,1c-1,1-1,2.4-0.1,3.4c0.9,1,2.3,1.3,3.4,0.4
	c1.6-1.2,3.1-2.6,4.5-4c0.6-0.6,1.3-1.1,2.1-1.4c4.1-1.5,8.3-3,12.8-2.6C136.1,53.2,137.3,55.6,135.4,58.7z"/>
<path class="st0" d="M381.6,97.3c-2.1-9.9-7.2-17.3-17.1-20.7c-8-2.7-16.1-3-24.3-0.9c-9.4,2.4-16,8.3-19.6,17.3
	c-4.1,10.4-4,21-0.9,31.6c2.3,8,7.6,13.4,15.5,16c8.2,2.6,16.5,3,24.9,0.8c9.5-2.5,16.1-8.4,19.8-17.5c2.1-5.2,2.8-10.6,2.7-16.8
	C382.6,104.2,382.3,100.8,381.6,97.3z M361.1,112.6c0,2.8-0.4,7.5-1.3,12.1c-0.2,1.1-0.8,1.7-1.8,2.1c-2.3,1-4.6,1.4-7.1,1.3
	c-4.3-0.1-7.4-2.2-9.4-5.9c-1.8-3.2-2.6-6.7-2.9-10.4c-0.5-6.4-0.3-12.7,0.9-19.1c0.3-1.5,1.1-2.2,2.6-2.5c2.1-0.4,4.1-0.6,6.2-0.7
	c4.8-0.3,8.6,2.3,10.7,7.1C360.4,100,361.2,105,361.1,112.6z"/>
</svg>
